<?xml version="1.0" encoding="UTF-8" standalone="no"?>
<svg width="20px" height="20px" viewBox="0 0 20 20" version="1.1" xmlns="http://www.w3.org/2000/svg" xmlns:xlink="http://www.w3.org/1999/xlink">
    <defs></defs>
    <g id="Page-1" stroke="none" stroke-width="1" fill="none" fill-rule="evenodd">
        <g id="dribbble" fill="#FFFFFF">
            <g id="Page-1">
                <g id="Desktop">
                    <g id="Social-Icons-2">
                        <g id="Oval-4-+-1417143908_02-dribbble">
                            <g id="1417143908_02-dribbble">
                                <path d="M19.7973201,7.98648895 C19.6662469,7.34410712 19.4692324,6.71143383 19.2143678,6.10707712 C18.9639532,5.51364252 18.653261,4.94245667 18.292405,4.40848688 C17.9343808,3.87896685 17.5237656,3.3814041 17.0714819,2.9295524 C16.6196029,2.47689165 16.1216054,2.06589673 15.5924578,1.7087033 C15.0584557,1.34665561 14.4864261,1.03719585 13.8937647,0.785987338 C13.2893714,0.531542647 12.6570643,0.334135636 12.014239,0.203879371 C11.3560409,0.068768836 10.67802,0 10.0008082,0 C9.3227873,0 8.6455755,0.068768836 7.98656832,0.203879371 C7.34414757,0.334135636 6.71143594,0.531947169 6.10744716,0.785987338 C5.5147857,1.03719585 4.94275614,1.34706013 4.40794491,1.7087033 C3.87839279,2.06589673 3.38079989,2.47648713 2.92892081,2.9295524 C2.47663718,3.3814041 2.06642645,3.87937137 1.70880684,4.40848688 C1.3475463,4.94245667 1.0372587,5.51364252 0.78684406,6.10707712 C0.53076576,6.71143383 0.33456043,7.34410712 0.203082631,7.98648895 C0.068368455,8.64383811 0,9.32181792 0,9.9993932 C0,10.6781821 0.068368455,11.3561619 0.203082631,12.0139156 C0.33456043,12.6562974 0.531170307,13.2889707 0.78643951,13.8929229 C1.03685415,14.4855484 1.3475463,15.0583524 1.70840229,15.5923222 C2.0660219,16.1218422 2.47623264,16.6185959 2.92851626,17.0712566 C3.38039534,17.5231084 3.87839279,17.9332942 4.40754036,18.2912967 C4.94235159,18.6525353 5.51438115,18.9628042 6.10704262,19.2132036 C6.71062685,19.4692664 7.34374302,19.6642463 7.98616377,19.7961206 C8.64517095,19.9320402 9.32238275,20 10.0004036,20 C10.6776154,20 11.3556363,19.9320402 12.0138344,19.7961206 C12.6570643,19.6642463 13.2889668,19.4688619 13.8933601,19.2132036 C14.4860216,18.9628042 15.0580512,18.6521308 15.5920533,18.2912967 C16.1216054,17.9332942 16.6191983,17.5235129 17.0710774,17.0712566 C17.5229565,16.6185959 17.9339763,16.1214377 18.2920005,15.5923222 C18.653261,15.0583524 18.9635486,14.4855484 19.2139632,13.8929229 C19.4692324,13.2893752 19.6658423,12.6562974 19.7969156,12.0139156 C19.9320343,11.3557574 19.9999982,10.6777776 19.9999982,9.9993932 C20.0004028,9.32181792 19.9324388,8.64383811 19.7973201,7.98648895 L19.7973201,7.98648895 L19.7973201,7.98648895 Z M18.5375605,9.914848 C18.4141737,9.8881495 15.5240894,9.26599381 12.5895049,9.63491839 C12.529632,9.48888574 12.4685453,9.34163953 12.405436,9.19398879 C12.2278398,8.77611699 12.0364891,8.36188588 11.8374519,7.95534071 C15.2105654,6.57915495 16.5799572,4.59901701 16.5957346,4.5755547 C17.7935985,6.02940879 18.5181423,7.88778544 18.5375605,9.914848 L18.5375605,9.914848 L18.5375605,9.914848 Z M15.6410035,3.59054226 C15.6195625,3.62371311 14.403494,5.47480836 11.1800629,6.68311725 C9.72005253,4.00072814 8.11602338,1.87010781 7.98778196,1.70101737 C8.63343909,1.54446714 9.30660542,1.45992193 10.0004036,1.45992193 C12.1631123,1.45992193 14.1360884,2.26573087 15.6410035,3.59054226 L15.6410035,3.59054226 L15.6410035,3.59054226 Z M7.9546091,1.70789426 C7.9546091,1.7087033 7.95299091,1.70951235 7.95299091,1.70951235 C7.95299091,1.70951235 7.94368633,1.71193948 7.92790899,1.71517566 C7.93640448,1.71274853 7.94611361,1.71113044 7.9546091,1.70789426 L7.9546091,1.70789426 L7.9546091,1.70789426 Z M6.35624361,2.27584394 C6.46992134,2.42834894 8.04967766,4.56948686 9.52789267,7.19645638 C5.42699899,8.28583564 1.86819838,8.24336077 1.64246112,8.23931555 C2.1974997,5.59414251 3.97467499,3.40082118 6.35624361,2.27584394 L6.35624361,2.27584394 L6.35624361,2.27584394 Z M1.46001039,9.9993932 C1.46001039,9.9083756 1.46405586,9.8193807 1.46729223,9.72957667 C1.61778375,9.73281285 5.83801881,9.8286847 10.235041,8.5127728 C10.4797919,8.99172751 10.7140247,9.47836816 10.9280301,9.9646043 C10.8151615,9.996157 10.7026974,10.0301369 10.5914469,10.066544 C5.98244212,11.555996 3.64456458,15.7031613 3.64456458,15.7031613 C3.64456458,15.7031613 3.64780096,15.7055885 3.64780096,15.7072066 C2.28811825,14.1938877 1.46001039,12.1935236 1.46001039,9.9993932 L1.46001039,9.9993932 L1.46001039,9.9993932 Z M10.0004036,18.5400781 C7.93357265,18.5400781 6.03786507,17.8054651 4.56045916,16.5829979 C4.6725187,16.6740155 4.75180992,16.7322667 4.75180992,16.7322667 C4.75180992,16.7322667 6.38901193,13.1619506 11.4535367,11.3974232 C11.4725504,11.3901418 11.4915642,11.384883 11.5105779,11.3792197 C12.7124872,14.5017293 13.2084619,17.1169677 13.3350852,17.8633118 C12.3099629,18.2993871 11.1832993,18.5400781 10.0004036,18.5400781 L10.0004036,18.5400781 L10.0004036,18.5400781 Z M14.7728455,17.0833923 C14.6858679,16.5676261 14.2307524,14.0612043 13.1105615,10.9831921 C15.8671453,10.5422625 18.2568049,11.2983152 18.4327828,11.3561619 C18.0525086,13.7355636 16.6903986,15.7881111 14.7728455,17.0833923 L14.7728455,17.0833923 L14.7728455,17.0833923 Z" id="Shape"></path>
                            </g>
                        </g>
                    </g>
                </g>
            </g>
        </g>
    </g>
</svg>