<?xml version="1.0" encoding="UTF-8" standalone="no"?>
<svg width="21px" height="21px" viewBox="0 0 21 21" version="1.1" xmlns="http://www.w3.org/2000/svg" xmlns:xlink="http://www.w3.org/1999/xlink">
    <defs></defs>
    <g id="Page-1" stroke="none" stroke-width="1" fill="none" fill-rule="evenodd">
        <g id="Desktop" transform="translate(-324.000000, -524.000000)" fill="#FFFFFF">
            <g id="Social-Icons-2" transform="translate(212.000000, 512.000000)">
                <g id="Oval-4-+-1417143908_02-dribbble" transform="translate(100.000000, 0.000000)">
                    <g id="1417143908_02-dribbble" transform="translate(12.000000, 12.000000)">
                        <path d="M20.0339601,8.18280895 C19.9028869,7.54042712 19.7058724,6.90775383 19.4510078,6.30339712 C19.2005932,5.70996252 18.889901,5.13877667 18.529045,4.60480688 C18.1710208,4.07528685 17.7604056,3.5777241 17.3081219,3.1258724 C16.8562429,2.67321165 16.3582454,2.26221673 15.8290978,1.9050233 C15.2950957,1.54297561 14.7230661,1.23351585 14.1304047,0.982307338 C13.5260114,0.727862647 12.8937043,0.530455636 12.250879,0.400199371 C11.5926809,0.265088836 10.91466,0.19632 10.2374482,0.19632 C9.5594273,0.19632 8.8822155,0.265088836 8.22320832,0.400199371 C7.58078757,0.530455636 6.94807594,0.728267169 6.34408716,0.982307338 C5.7514257,1.23351585 5.17939614,1.54338013 4.64458491,1.9050233 C4.11503279,2.26221673 3.61743989,2.67280713 3.16556081,3.1258724 C2.71327718,3.5777241 2.30306645,4.07569137 1.94544684,4.60480688 C1.5841863,5.13877667 1.2738987,5.70996252 1.02348406,6.30339712 C0.76740576,6.90775383 0.57120043,7.54042712 0.439722631,8.18280895 C0.305008455,8.84015811 0.23664,9.51813792 0.23664,10.1957132 C0.23664,10.8745021 0.305008455,11.5524819 0.439722631,12.2102356 C0.57120043,12.8526174 0.767810307,13.4852907 1.02307951,14.0892429 C1.27349415,14.6818684 1.5841863,15.2546724 1.94504229,15.7886422 C2.3026619,16.3181622 2.71287264,16.8149159 3.16515626,17.2675766 C3.61703534,17.7194284 4.11503279,18.1296142 4.64418036,18.4876167 C5.17899159,18.8488553 5.75102115,19.1591242 6.34368262,19.4095236 C6.94726685,19.6655864 7.58038302,19.8605663 8.22280377,19.9924406 C8.88181095,20.1283602 9.55902275,20.19632 10.2370436,20.19632 C10.9142554,20.19632 11.5922763,20.1283602 12.2504744,19.9924406 C12.8937043,19.8605663 13.5256068,19.6651819 14.1300001,19.4095236 C14.7226616,19.1591242 15.2946912,18.8484508 15.8286933,18.4876167 C16.3582454,18.1296142 16.8558383,17.7198329 17.3077174,17.2675766 C17.7595965,16.8149159 18.1706163,16.3177577 18.5286405,15.7886422 C18.889901,15.2546724 19.2001886,14.6818684 19.4506032,14.0892429 C19.7058724,13.4856952 19.9024823,12.8526174 20.0335556,12.2102356 C20.1686743,11.5520774 20.2366382,10.8740976 20.2366382,10.1957132 C20.2370428,9.51813792 20.1690788,8.84015811 20.0339601,8.18280895 L20.0339601,8.18280895 Z M18.7742005,10.111168 C18.6508137,10.0844695 15.7607294,9.46231381 12.8261449,9.83123839 C12.766272,9.68520574 12.7051853,9.53795953 12.642076,9.39030879 C12.4644798,8.97243699 12.2731291,8.55820588 12.0740919,8.15166071 C15.4472054,6.77547495 16.8165972,4.79533701 16.8323746,4.7718747 C18.0302385,6.22572879 18.7547823,8.08410544 18.7742005,10.111168 L18.7742005,10.111168 Z M15.8776435,3.78686226 C15.8562025,3.82003311 14.640134,5.67112836 11.4167029,6.87943725 C9.95669253,4.19704814 8.35266338,2.06642781 8.22442196,1.89733737 C8.87007909,1.74078714 9.54324542,1.65624193 10.2370436,1.65624193 C12.3997523,1.65624193 14.3727284,2.46205087 15.8776435,3.78686226 L15.8776435,3.78686226 Z M8.1912491,1.90421426 C8.1912491,1.9050233 8.18963091,1.90583235 8.18963091,1.90583235 C8.18963091,1.90583235 8.18032633,1.90825948 8.16454899,1.91149566 C8.17304448,1.90906853 8.18275361,1.90745044 8.1912491,1.90421426 L8.1912491,1.90421426 Z M6.59288361,2.47216394 C6.70656134,2.62466894 8.28631766,4.76580686 9.76453267,7.39277638 C5.66363899,8.48215564 2.10483838,8.43968077 1.87910112,8.43563555 C2.4341397,5.79046251 4.21131499,3.59714118 6.59288361,2.47216394 L6.59288361,2.47216394 Z M1.69665039,10.1957132 C1.69665039,10.1046956 1.70069586,10.0157007 1.70393223,9.92589667 C1.85442375,9.92913285 6.07465881,10.0250047 10.471681,8.7090928 C10.7164319,9.18804751 10.9506647,9.67468816 11.1646701,10.1609243 C11.0518015,10.192477 10.9393374,10.2264569 10.8280869,10.262864 C6.21908212,11.752316 3.88120458,15.8994813 3.88120458,15.8994813 C3.88120458,15.8994813 3.88444096,15.9019085 3.88444096,15.9035266 C2.52475825,14.3902077 1.69665039,12.3898436 1.69665039,10.1957132 L1.69665039,10.1957132 Z M10.2370436,18.7363981 C8.17021265,18.7363981 6.27450507,18.0017851 4.79709916,16.7793179 C4.9091587,16.8703355 4.98844992,16.9285867 4.98844992,16.9285867 C4.98844992,16.9285867 6.62565193,13.3582706 11.6901767,11.5937432 C11.7091904,11.5864618 11.7282042,11.581203 11.7472179,11.5755397 C12.9491272,14.6980493 13.4451019,17.3132877 13.5717252,18.0596318 C12.5466029,18.4957071 11.4199393,18.7363981 10.2370436,18.7363981 L10.2370436,18.7363981 Z M15.0094855,17.2797123 C14.9225079,16.7639461 14.4673924,14.2575243 13.3472015,11.1795121 C16.1037853,10.7385825 18.4934449,11.4946352 18.6694228,11.5524819 C18.2891486,13.9318836 16.9270386,15.9844311 15.0094855,17.2797123 L15.0094855,17.2797123 Z" id="Shape"></path>
                    </g>
                </g>
            </g>
        </g>
    </g>
</svg>