<?xml version="1.0" encoding="UTF-8" standalone="no"?>
<svg width="21px" height="20px" viewBox="0 0 21 20" version="1.1" xmlns="http://www.w3.org/2000/svg" xmlns:xlink="http://www.w3.org/1999/xlink">
    <defs></defs>
    <g id="Page-1" stroke="none" stroke-width="1" fill="none" fill-rule="evenodd">
        <g id="Desktop" transform="translate(-365.000000, -524.000000)" fill="#FFFFFF">
            <g id="1418360817_github" transform="translate(365.000000, 524.000000)">
                <path d="M10.5073436,0 C4.70923781,0 0.008,4.59042208 0.008,10.2531391 C0.008,14.7826717 3.01568942,18.6257562 7.18917029,19.9819881 C7.71430158,20.0755655 7.87971793,19.7717593 7.87971793,19.5000002 C7.87971793,19.2564425 7.88496924,18.5757627 7.87971793,17.720106 C4.95933158,18.3398963 4.35411778,16.3696425 4.35411778,16.3696425 C3.87690473,15.1851829 3.18898275,14.8698397 3.18898275,14.8698397 C2.23586947,14.2340259 3.26053188,14.2462038 3.26053188,14.2462038 C4.31407652,14.3186302 4.86940285,15.3031161 4.86940285,15.3031161 C5.80610578,16.8689359 7.32636084,16.4164313 7.92435409,16.1549272 C8.02019055,15.4921938 8.29194599,15.0403301 8.59192723,14.7839536 C6.26034434,14.5250133 3.80929407,13.6456417 3.80929407,9.71667114 C3.80929407,8.59694657 4.21824006,7.68232324 4.88975169,6.96575079 C4.78144336,6.70681047 4.4204156,5.66399887 4.9928087,4.25200504 C4.9928087,4.25200504 5.87437284,3.97640025 7.87971793,5.30378982 C8.71730233,5.07625563 9.61593323,4.96280901 10.5086564,4.95896336 C11.4007232,4.96280901 12.2986977,5.07625563 13.1375949,5.30378982 C15.14294,3.97704119 16.0231913,4.25200504 16.0231913,4.25200504 C16.5955844,5.66399887 16.2352131,6.70681047 16.1275611,6.96575079 C16.7990728,7.68232324 17.2067059,8.59694657 17.2067059,9.71667114 C17.2067059,13.6558968 14.7517172,14.5224495 12.4122573,14.7756214 C12.789039,15.0928873 13.1310308,15.708191 13.1310308,16.6644756 L13.1310308,19.5025639 C13.1310308,19.7768869 13.3003856,20.0800521 13.8333938,19.9807062 C18.0029362,18.6225514 21.008,14.7813898 21.008,10.2531391 C21.008,4.59042208 16.3067622,0 10.5073436,0 L10.5073436,0 Z" id="Shape"></path>
            </g>
        </g>
    </g>
</svg>