<?xml version="1.0" encoding="UTF-8" standalone="no"?>
<svg width="21px" height="21px" viewBox="0 0 21 21" version="1.1" xmlns="http://www.w3.org/2000/svg" xmlns:xlink="http://www.w3.org/1999/xlink">
    <defs></defs>
    <g id="Page-1" stroke="none" stroke-width="1" fill="none" fill-rule="evenodd">
        <g id="Desktop" transform="translate(-224.000000, -523.000000)" fill="#FFFFFF">
            <g id="Social-Icons-2" transform="translate(212.000000, 512.000000)">
                <g id="Oval-2-+-1417143921_11-linkedin">
                    <g id="1417143921_11-linkedin" transform="translate(12.000000, 12.000000)">
                        <g id="linkedin">
                            <path id="Shape" d="M13.5355,10.8249796 L13.5355,10.7872653 C13.5275,10.8 13.519,10.8127347 13.5105,10.8249796 L13.5355,10.8249796 L13.5355,10.8249796 Z"></path>
                            <path d="M18.7683961,-0.163102041 L1.72438998,-0.163102041 C0.908608498,-0.163102041 0.247,0.478660796 0.247,1.26960535 L0.247,18.4045927 C0.247,19.1951351 0.908608498,19.836898 1.72438998,19.836898 L18.7683961,19.836898 C19.5853915,19.836898 20.247,19.194733 20.247,18.4045927 L20.247,1.26960535 C20.247,0.478258689 19.5849868,-0.163102041 18.7683961,-0.163102041 L18.7683961,-0.163102041 Z M6.30911431,16.5794288 L3.28837582,16.5794288 L3.28837582,7.54850679 L6.30911431,7.54850679 L6.30911431,16.5794288 L6.30911431,16.5794288 Z M4.7989474,6.31484239 L4.77871472,6.31484239 C3.76546232,6.31484239 3.10992362,5.62120774 3.10992362,4.75466707 C3.10992362,3.86882526 3.78569499,3.19449175 4.81877542,3.19449175 C5.8522605,3.19449175 6.48797117,3.86882526 6.50820384,4.75466707 C6.50820384,5.62120774 5.85185584,6.31484239 4.7989474,6.31484239 L4.7989474,6.31484239 Z M17.2019823,16.5794288 L14.1812438,16.5794288 L14.1812438,11.7469064 C14.1812438,10.5333474 13.744218,9.70500685 12.6512489,9.70500685 C11.8168533,9.70500685 11.3199388,10.2635335 11.1010212,10.8031612 C11.0213045,10.9957705 11.0018811,11.2651822 11.0018811,11.5353981 L11.0018811,16.5790267 L7.98114264,16.5790267 C7.98114264,16.5790267 8.02079868,8.39454 7.98114264,7.54810468 L11.0018811,7.54810468 L11.0018811,8.82640297 C11.4032974,8.21117919 12.1211528,7.33498795 13.7247946,7.33498795 C15.7120481,7.33498795 17.2023869,8.62615366 17.2023869,11.4002901 L17.2023869,16.5794288 L17.2019823,16.5794288 Z" id="Shape"></path>
                        </g>
                    </g>
                </g>
            </g>
        </g>
    </g>
</svg>