<?xml version="1.0" encoding="UTF-8" standalone="no"?>
<svg width="26px" height="21px" viewBox="0 0 26 21" version="1.1" xmlns="http://www.w3.org/2000/svg" xmlns:xlink="http://www.w3.org/1999/xlink">
    <defs></defs>
    <g id="Page-1" stroke="none" stroke-width="1" fill="none" fill-rule="evenodd">
        <g id="Desktop" transform="translate(-271.000000, -524.000000)" fill="#FFFFFF">
            <g id="Social-Icons-2" transform="translate(212.000000, 512.000000)">
                <g id="Oval-3-+-1417143915_03-twitter" transform="translate(50.000000, 0.000000)">
                    <g id="1417143915_03-twitter" transform="translate(10.000000, 12.000000)">
                        <path d="M24.7391837,2.56308764 C23.8201369,2.9652458 22.8310579,3.23651522 21.7932608,3.35791203 C22.8528796,2.73344283 23.6653554,1.74428362 24.048503,0.564286616 C23.0573941,1.14329446 21.9602218,1.56343734 20.7914947,1.79024455 C19.8562086,0.809078543 18.523058,0.1956 17.0478129,0.1956 C14.2155655,0.1956 11.9192174,2.45617851 11.9192174,5.24480817 C11.9192174,5.63997228 11.9643831,6.02514489 12.0521772,6.39533023 C7.78934302,6.18450943 4.00963005,4.17471775 1.47984096,1.11981442 C1.03833314,1.86518086 0.785607968,2.73244368 0.785607968,3.6586564 C0.785607968,5.41016762 1.69095275,6.95585378 3.06723921,7.86108434 C2.2268519,7.83460684 1.43569018,7.60730005 0.743994586,7.22912151 C0.743487106,7.25010367 0.743487106,7.27158541 0.743487106,7.29306715 C0.743487106,9.73898812 2.51154833,11.7792539 4.85813705,12.243859 C4.42779379,12.3587613 3.97461392,12.4207087 3.50671712,12.4207087 C3.17583999,12.4207087 2.85460498,12.3892354 2.54148966,12.3297859 C3.19461676,14.335581 5.08853308,15.7958398 7.33261079,15.8363054 C5.57723657,17.1906542 3.36614508,17.997968 0.962718578,17.997968 C0.549122167,17.997968 0.140600558,17.9739884 -0.260816327,17.9270283 C2.00965035,19.36031 4.70538549,20.1956 7.60157533,20.1956 C17.0361408,20.1956 22.1946777,12.5021394 22.1946777,5.82981092 C22.1946777,5.61099691 22.1901103,5.39268248 22.1804682,5.17586677 C23.1822342,4.46547061 24.0520554,3.57572689 24.7391837,2.56308764 L24.7391837,2.56308764 Z" id="Shape"></path>
                    </g>
                </g>
            </g>
        </g>
    </g>
</svg>